<svg width="374" height="269" viewBox="0 0 374 269" fill="none" xmlns="http://www.w3.org/2000/svg">
<path d="M138.494 175.977C132.457 156.632 118.85 141.315 100.851 131.838C90.0504 126.325 81.281 124.637 67.9834 125.514C53.9388 126.44 42.0442 130.129 32.9325 136.385C29.7327 138.582 27.0091 140.274 26.8801 140.145C26.2107 139.476 68.0286 57.3928 71.0714 53.4035C80.3171 41.2818 95.3036 34.1534 111.848 34.0082C127.617 33.8698 139.137 38.6519 149.852 49.7844C154.587 54.7042 158.423 55.6973 158.423 52.0034C158.423 46.8619 132.013 29.3592 124.175 29.3064C122.732 29.2966 120.293 28.9514 118.756 28.5391C116.085 27.8226 116.046 27.588 117.864 23.2353C125.188 5.70694 139.421 -2.78027 155.47 0.811181C163.945 2.70783 172.968 10.1516 176.702 18.3272C179.293 23.9998 179.821 34.0242 177.883 40.7797C176.658 45.0507 176.686 45.0901 180.147 44.0656C184.63 42.739 191.729 42.739 196.211 44.0656C199.673 45.0901 199.7 45.0507 198.475 40.7797C194.155 25.7143 200.55 10.3383 213.989 3.48238C230.33 -4.85404 248.527 2.38589 257.246 20.6926C260.741 28.0299 260.225 29.0276 252.831 29.2332C244.223 29.4723 217.936 46.6487 217.936 52.0341C217.936 55.7685 221.552 54.4823 227.978 48.4624C249.713 28.1025 281.331 28.7683 302.026 50.0219C306.62 54.7396 312.229 64.7433 328.552 97.3258C339.937 120.052 349.479 139.181 349.755 139.833C350.032 140.486 348.577 139.834 346.521 138.385C334.648 130.015 318.786 125.055 303.975 125.079C286.645 125.109 270.947 131.753 256.076 145.352C247.151 153.654 240.856 166.403 237.87 176.221L235.582 183.928L233.836 177.459C232.875 173.902 230.505 166.113 228.57 160.151L225.051 149.311L213.408 143.059C196.356 133.904 190.692 132.21 183.325 134.066C180.037 134.894 173.931 137.573 169.756 140.02C165.581 142.467 161.603 144.469 160.915 144.469C160.228 144.469 157.494 145.84 154.839 147.517C150.337 150.36 149.769 151.468 146.366 164.012C140.502 185.634 141.192 184.585 138.494 175.977ZM199.323 118.226C210.623 107.87 203.407 88.8466 188.179 88.8466C172.951 88.8466 165.736 107.87 177.036 118.226C180.992 121.851 182.628 122.475 188.179 122.475C193.731 122.475 195.367 121.851 199.323 118.226ZM181.238 113.324C174.121 107.726 178.906 95.3057 188.179 95.3057C190.7 95.3057 193.352 96.4796 195.354 98.4814C204.707 107.835 191.678 121.536 181.238 113.324ZM174.342 77.1101C186.084 72.1098 190.44 72.1045 202.016 77.0759C207.136 79.2749 211.866 81.0739 212.526 81.0739C213.187 81.0739 213.361 79.2803 212.912 77.0879C212.205 73.6281 210.903 72.5877 203.049 69.2063C197.442 66.7923 191.787 65.3109 188.179 65.3109C184.572 65.3109 178.916 66.7924 173.309 69.2064C165.456 72.5877 164.154 73.6282 163.446 77.088C162.998 79.2803 163.171 81.0741 163.832 81.0741C164.493 81.0741 169.222 79.2901 174.342 77.1098V77.1101Z" fill="#4CA800" fill-opacity="0.42"/>
<path d="M65.9981 269C102.448 269 131.996 239.452 131.996 203.002C131.996 166.552 102.448 137.004 65.9981 137.004C29.5483 137.004 0 166.552 0 203.002C0 239.452 29.5483 269 65.9981 269Z" fill="#4CA800" fill-opacity="0.42"/>
<path d="M307.773 267.04C344.223 267.04 373.771 237.491 373.771 201.042C373.771 164.592 344.223 135.043 307.773 135.043C271.323 135.043 241.775 164.592 241.775 201.042C241.775 237.491 271.323 267.04 307.773 267.04Z" fill="#4CA800" fill-opacity="0.42"/>
<path d="M65.9981 253.16C93.7 253.16 116.157 230.703 116.157 203.002C116.157 175.3 93.7 152.843 65.9981 152.843C38.2963 152.843 15.8396 175.3 15.8396 203.002C15.8396 230.703 38.2963 253.16 65.9981 253.16Z" fill="white"/>
<path d="M307.773 251.2C335.475 251.2 357.932 228.743 357.932 201.042C357.932 173.34 335.475 150.883 307.773 150.883C280.072 150.883 257.615 173.34 257.615 201.042C257.615 228.743 280.072 251.2 307.773 251.2Z" fill="white"/>
</svg>
