<svg width="1440" height="710" viewBox="0 0 1440 710" fill="none" xmlns="http://www.w3.org/2000/svg">
<g clip-path="url(#clip0)">
<path d="M123.451 439.64L155.451 392.238L198.117 434.904L255.006 406.459L297.672 449.125L354.561 363.791L411.45 406.458L454.116 392.235L482.561 434.901L525.227 392.235L553.672 449.124L525.227 548.679L368.782 619.79L212.341 591.349L127.007 506.015L123.451 439.64Z" fill="#99AAB5"/>
<path d="M510.381 373.919C510.68 369.823 511.008 365.755 511.008 361.588C511.008 277.065 449.51 207.078 368.843 193.495C385.753 189.811 397.728 186.256 383.008 178.903C367.15 170.966 351.278 180.738 340.355 190.92H340.341H340.328C329.39 180.738 313.548 170.966 297.675 178.903C282.955 186.255 294.93 189.811 311.84 193.495C231.185 207.078 169.674 277.065 169.674 361.589C169.674 365.756 170.001 369.824 170.3 373.92C163.43 467.8 80.6575 605.57 340.341 605.57C600.025 605.57 517.236 467.8 510.381 373.919Z" fill="#FFCC4D"/>
<path d="M383.007 363.793C383.007 387.359 363.907 392.238 340.341 392.238C316.775 392.238 297.675 387.359 297.675 363.793C297.675 340.226 316.775 321.126 340.341 321.126C363.907 321.126 383.007 340.226 383.007 363.793Z" fill="#F4900C"/>
<path d="M269.23 328.238C269.23 340.028 259.688 349.571 247.896 349.571C236.105 349.571 226.562 340.028 226.562 328.238C226.562 316.448 236.105 306.904 247.896 306.904C259.688 306.904 269.23 316.446 269.23 328.238Z" fill="#662113"/>
<path d="M454.119 328.238C454.119 340.028 444.561 349.571 432.785 349.571C421.009 349.571 411.451 340.029 411.451 328.238C411.451 316.446 421.009 306.904 432.785 306.904C444.561 306.904 454.119 316.446 454.119 328.238Z" fill="#662113"/>
<g filter="url(#filter0_d)">
<path d="M525.23 520.238L482.564 506.015L425.675 591.349L383.009 520.238L354.564 548.683L297.675 520.238L255.009 577.126L212.342 491.793L169.674 520.238L122.826 409.803C116.326 428.989 112.785 449.355 112.785 470.46C112.785 584.366 214.672 676.682 340.34 676.682C466.007 676.682 567.895 584.366 567.895 470.46C567.895 452.767 565.179 435.701 560.542 419.303L525.23 520.238Z" fill="#E1E8ED"/>
</g>
</g>
<path d="M751.693 242.595C716.808 227.616 605.872 222.39 605.298 301.519C605.298 301.519 604.805 340.646 647.143 327.495C655.684 324.842 662.847 310.825 662.847 310.825C662.847 310.825 670.885 288.486 742.882 273.148C755.027 270.561 786.577 257.574 751.693 242.595Z" fill="#F27171" fill-opacity="0.24"/>
<path d="M1343.84 352.205C1335.1 400.106 1266.15 512.677 1188.96 439.046C1188.96 439.046 1150.66 402.842 1191.68 374.08C1199.95 368.277 1218.33 374.467 1218.33 374.467C1218.33 374.467 1245.38 387.609 1308.31 332.111C1318.93 322.749 1352.58 304.304 1343.84 352.205Z" fill="#F27171" fill-opacity="0.24"/>
<path d="M671.776 415.8C670.264 412.92 668.536 409.68 666.808 407.088L660.472 410.544L661.12 411.624H655.288V398.088H647.44V411.624H639.664V419.544H647.44V431.568C644.128 432.648 641.176 433.656 638.728 434.448L640.888 442.512L647.44 440.064V456.192C647.44 457.128 647.08 457.416 646.216 457.416C645.352 457.488 642.904 457.488 640.312 457.344C641.32 459.648 642.256 463.176 642.472 465.264C647.152 465.336 650.248 465.048 652.408 463.68C654.568 462.312 655.288 460.152 655.288 456.192V437.04C657.664 436.176 660.04 435.312 662.344 434.376L660.76 426.816L655.288 428.832V419.544H661.264V411.912C663.784 416.232 666.376 421.704 667.528 425.304L671.776 422.712V430.056V432.216L671.632 431.928C666.664 435.312 661.552 438.696 658.168 440.712L662.56 447.912C665.152 445.896 668.104 443.592 670.912 441.288C669.544 448.416 666.016 454.464 657.52 459C659.32 460.296 662.272 463.176 663.568 464.976C677.752 457.128 679.624 444.528 679.624 430.128V398.808H671.776V415.8ZM694.024 456.912C692.512 456.912 692.296 456.408 692.296 453.096V436.752C696.04 440.424 699.784 444.6 701.8 447.48L707.272 441.432C704.608 437.976 699.064 432.648 694.384 428.76L692.296 430.776V422.712L696.904 425.304C699.568 421.488 702.808 415.44 705.76 410.112L698.128 406.224C696.832 410.328 694.456 415.656 692.296 419.832V398.808H684.232V453.024C684.232 462.024 686.032 464.544 692.512 464.544H698.776C704.392 464.544 706.408 460.728 707.2 450.936C704.968 450.432 701.872 448.992 700 447.552C699.784 454.824 699.496 456.912 698.056 456.912H694.024ZM778.048 411.12C776.968 407.736 773.728 402.768 770.92 399.024L764.44 402.408C767.176 406.224 770.056 411.552 771.208 414.864L778.048 411.12ZM741.976 409.896H738.16V405.216H741.976V409.896ZM748.384 399.888H732.112V415.296H748.384V399.888ZM723.184 409.896H719.44V405.216H723.184V409.896ZM729.448 399.888H713.32V415.296H729.448V399.888ZM721.096 433.944H727.072V437.832H721.096V433.944ZM721.096 424.296H727.072V428.04H721.096V424.296ZM740.392 428.04H734.272V424.296H740.392V428.04ZM740.392 437.832H734.272V433.944H740.392V437.832ZM749.608 455.184V447.696H734.704V444.096H747.736V418.032H714.04V444.096H726.568V447.696H711.232V455.184H726.568V465.264H734.704V455.184H749.608ZM770.632 425.376C769.264 429.768 767.32 434.16 764.944 438.264C764.368 434.376 763.792 429.984 763.36 425.232L778.984 423.288L778.12 415.44L762.784 417.312C762.424 411.408 762.136 405 762.064 398.448H754C754.144 405.504 754.432 412.128 754.792 418.248L748.528 419.04L749.392 426.96L755.368 426.24C756.088 434.376 757.096 441.504 758.464 447.336C754.288 452.088 749.392 456.048 743.992 458.568C746.224 460.152 748.744 462.6 750.184 464.544C754.072 462.312 757.744 459.36 761.128 455.904C763.576 461.808 766.888 465.12 771.208 465.336C774.304 465.408 777.976 462.6 779.776 450.072C778.408 449.28 774.952 447.12 773.584 445.248C773.224 451.728 772.432 455.112 771.28 455.112C769.768 454.968 768.4 452.664 767.176 448.632C771.424 442.656 774.88 435.888 777.112 428.976L770.632 425.376ZM826.648 430.776C827.44 431.568 828.232 432.36 829.024 433.08H806.632C807.496 432.36 808.144 431.568 808.864 430.776H826.648ZM810.592 422.928H823.48V424.944H810.592V422.928ZM810.592 416.376H823.48V418.608H810.592V416.376ZM793.6 411.84V408.456H840.256V411.84H831.472V409.392H823.48V411.84H810.592V409.392H802.744V411.84H793.6ZM804.112 439.344V437.184H829.744V439.344H804.112ZM829.744 449.352V451.584H804.112V449.352H829.744ZM804.112 445.392V443.232H829.744V445.392H804.112ZM837.952 439.488C840.544 440.928 843.208 442.08 845.944 442.944C847.096 441 849.4 437.976 851.2 436.464C846.16 435.24 841.048 433.296 836.8 430.776H848.824V424.944H831.472V422.928H840.688V418.608H831.472V416.376H841.192V414.072H848.392V402.048H822.904C822.256 400.392 821.32 398.52 820.528 397.08L811.96 399.24C812.392 400.104 812.824 401.04 813.184 402.048H785.824V414.072H793.096V416.376H802.744V418.608H793.96V422.928H802.744V424.944H785.392V430.776H799.144C794.536 433.872 788.632 436.392 782.872 437.832C784.6 439.272 786.76 442.152 787.912 443.952C790.792 443.016 793.6 441.792 796.336 440.424V455.688H802.816C797.848 457.344 791.08 458.928 785.32 459.648C786.76 461.088 789.064 463.608 790.216 465.12C798.28 463.896 808 461.232 813.904 458.28L810.16 455.688H823.408L820.096 458.496C827.944 460.584 835.936 463.248 840.616 465.048L847.744 460.44C843.712 459.144 837.88 457.344 831.904 455.688H837.952V439.488ZM911.176 409.248H906.568V404.64H911.176V409.248ZM900.088 409.248H895.768V404.64H900.088V409.248ZM889.288 409.248H884.968V404.64H889.288V409.248ZM918.448 399.96H878.056V413.928H918.448V399.96ZM873.376 408.888C871.432 406.008 867.616 401.544 864.448 398.088L858.04 401.904C860.992 405.432 864.88 410.4 866.68 413.424L873.376 408.888ZM913.984 437.472C912.184 438.984 909.88 440.712 907.864 442.008C906.064 440.856 904.264 439.632 902.608 438.624L897.424 442.224C898.792 443.16 900.232 444.096 901.744 445.176L892.456 447.84V442.728C895.408 441.072 898.072 439.344 900.376 437.472H913.984ZM887.992 429.12H908.008V432.72H887.992V429.12ZM920.248 450.576C918.448 449.136 915.784 447.336 912.976 445.392C915.424 444.024 918.16 442.152 920.464 440.352L915.928 436.896V424.368H880.432V437.472H890.944C885.976 440.208 879.784 442.512 874.528 443.88C875.824 445.104 877.624 447.336 878.56 448.848C880.864 448.128 883.24 447.192 885.688 446.112V447.912C885.688 450.504 884.392 451.44 883.24 451.944C883.888 452.88 884.752 454.68 885.184 456.192C878.92 455.328 874.384 453.168 871.576 448.128C872.944 443.808 874.024 438.912 874.744 433.44L871.144 431.928L869.848 432.144H865.744C868.912 427.32 872.8 420.624 875.176 416.592V421.848H921.616V416.376H875.32L875.392 416.232L870.208 414.216L869.056 414.72H856.096V421.56H864.592C862.36 425.448 859.768 429.48 858.616 430.704C857.464 432.144 856.312 432.72 855.232 433.008C855.952 434.52 857.464 438.12 857.896 439.848C858.472 439.272 860.632 438.768 862.288 438.768H866.464C864.448 448.344 860.632 455.544 854.872 459.792C856.528 460.872 859.336 463.752 860.488 465.408C863.584 462.888 866.32 459.576 868.624 455.184C874.096 462.6 882.448 464.04 895.768 464.04C904.192 464.04 913.336 463.824 920.824 463.392C921.256 461.016 922.408 457.2 923.632 455.472C915.424 456.264 903.616 456.696 895.912 456.696C892.672 456.696 889.792 456.624 887.056 456.336C889.144 455.472 893.176 454.104 903.472 451.008C903.184 449.712 902.752 447.552 902.536 445.752C907.144 448.92 912.04 452.52 914.848 454.824L920.248 450.576ZM981.736 411.984C981.304 417.456 980.656 420.048 979.792 420.912C979.072 421.488 978.424 421.632 977.272 421.632C975.832 421.632 972.592 421.56 969.352 421.2C970.792 423.432 971.728 426.672 971.872 429.12C975.688 429.192 979.144 429.192 981.232 428.976C983.68 428.688 985.48 428.112 986.992 426.384C988.936 424.224 989.872 419.04 990.592 407.448C990.736 406.296 990.808 404.28 990.808 404.28H967.336C967.696 402.552 967.984 400.824 968.272 399.024L959.416 398.016C957.976 409.896 954.232 419.832 946.888 425.592C948.976 426.744 952.792 429.552 954.304 430.992C959.272 426.384 962.944 419.832 965.392 411.984H981.736ZM949.696 405.72C946.744 403.2 940.768 400.032 936.16 398.304L931.48 404.64C936.088 406.656 941.992 410.112 944.656 412.704L949.696 405.72ZM945.376 424.8C942.424 422.352 936.304 419.328 931.768 417.6L927.304 424.008C931.912 426.024 937.816 429.336 940.624 431.856L945.376 424.8ZM942.712 436.104C938.536 444.384 933.352 453.312 929.68 458.712L937.024 464.328C941.2 457.416 945.52 449.208 949.12 441.648L942.712 436.104ZM979.216 438.984C977.272 442.224 974.824 445.032 971.8 447.408C968.704 444.888 966.04 442.08 964.096 438.984H979.216ZM985.336 431.064L983.824 431.352H951.856V438.984H961.576L956.032 440.856C958.408 445.032 961.288 448.704 964.672 451.944C959.416 454.608 953.224 456.408 946.528 457.488C948.112 459.36 949.984 462.888 950.776 465.192C958.624 463.536 965.68 461.16 971.8 457.56C976.984 460.944 982.96 463.464 989.8 465.12C991.024 462.744 993.472 459.216 995.416 457.416C989.44 456.264 984.04 454.464 979.288 452.088C984.472 447.336 988.504 441.216 991.024 433.368L985.336 431.064ZM1022.49 406.872V410.544H1011.18V406.872H1022.49ZM1011.18 420.048V416.16H1022.49V420.048H1011.18ZM1030.55 426.24V400.752H1002.83V465.264H1011.18V426.24H1030.55ZM1029.4 442.08V436.68H1036.1V442.08H1029.4ZM1051.5 449.064V442.08H1043.58V436.68H1050.35V429.912H1015.58V436.68H1022.13V442.08H1014.57V449.064H1021.84C1021.12 452.736 1019.1 457.416 1014.5 460.296C1016.15 461.448 1018.74 463.68 1019.97 465.192C1026.09 461.016 1028.46 454.032 1029.18 449.064H1036.1V463.896H1043.58V449.064H1051.5ZM1043.44 420.192V416.16H1055.1V420.192H1043.44ZM1055.1 406.872V410.544H1043.44V406.872H1055.1ZM1063.53 400.752H1035.3V426.384H1055.1V455.184C1055.1 456.192 1054.74 456.624 1053.59 456.624C1052.51 456.696 1048.98 456.696 1045.74 456.552C1046.9 458.784 1048.05 462.672 1048.34 465.048C1053.81 465.048 1057.55 464.832 1060.14 463.392C1062.74 462.024 1063.53 459.648 1063.53 455.256V400.752ZM1089.59 420.12C1089.45 425.736 1088.73 432.36 1086.35 438.912C1084.62 437.4 1082.9 435.888 1081.17 434.52C1082.25 430.272 1083.4 425.448 1084.41 420.48L1089.59 420.12ZM1100.39 419.328L1100.46 412.2L1097.3 412.344V408.168H1089.66V412.776L1085.78 412.992C1086.64 408.168 1087.29 403.344 1087.79 398.952L1079.87 398.448C1079.51 403.056 1078.79 408.24 1077.93 413.352C1075.48 413.496 1073.18 413.568 1071.09 413.64L1071.88 421.272L1076.56 420.984C1075.34 427.032 1073.97 432.72 1072.6 437.04C1075.77 439.776 1079.37 443.016 1082.97 446.328C1080.16 450.936 1076.27 455.472 1070.8 459.36C1072.6 460.656 1075.41 463.392 1076.56 465.192C1081.96 461.16 1085.92 456.696 1088.87 451.944C1091.54 454.536 1093.77 456.984 1095.42 458.928L1100.68 452.232C1098.81 450 1095.93 447.336 1092.76 444.384C1096.22 435.744 1097.15 426.96 1097.3 419.544L1100.39 419.328ZM1139.7 428.472C1137.69 422.712 1132.79 414.432 1127.82 408.168L1120.98 411.552C1122.86 414.144 1124.8 417.168 1126.6 420.192L1110.33 421.344C1114.29 415.296 1118.39 407.808 1121.49 400.464L1112.56 398.088C1109.46 407.016 1104.42 416.232 1102.62 418.68C1100.9 421.272 1099.6 422.712 1098.09 423.144C1099.02 425.376 1100.32 429.48 1100.82 431.136C1103.49 430.056 1107.09 429.696 1130.56 427.68C1131.28 429.336 1131.93 430.992 1132.36 432.432L1139.7 428.472ZM1126.74 442.656V454.824H1109.1V442.656H1126.74ZM1101.26 465.264H1109.1V462.384H1126.74V465.192H1134.95V435.168H1101.26V465.264ZM1158.21 412.128V438.624H1153.6V412.128H1158.21ZM1165.98 446.472V404.28H1145.82V452.88H1153.6V446.472H1165.98ZM1201.55 427.824L1195.79 430.344C1196.66 431.496 1197.59 432.72 1198.46 434.016L1187.44 434.664C1189.46 432.504 1191.33 430.128 1192.91 427.824H1201.55ZM1200.11 407.304V411.552H1176.86V407.304H1200.11ZM1195.72 457.272V451.872H1208.03V445.464H1195.72V440.496L1201.98 440.064C1202.42 440.928 1202.7 441.792 1202.99 442.512L1209.18 439.632C1207.96 436.248 1204.72 431.424 1201.77 427.824H1210.34V421.344H1176.86V418.176H1208.03V400.68H1169.3V422.928C1169.3 434.448 1168.65 450.36 1160.94 461.232C1162.74 462.024 1166.06 464.328 1167.42 465.696C1174.62 455.4 1176.42 439.92 1176.78 427.824H1184.13C1182.4 430.416 1180.6 432.504 1179.88 433.224C1178.8 434.52 1177.65 435.384 1176.5 435.6C1177.36 437.544 1178.58 441 1179.02 442.584C1180.17 442.08 1181.82 441.72 1188.02 441.144V445.464H1176.71V451.872H1188.02V457.272H1172.82V463.968H1210.55V457.272H1195.72ZM1245.76 434.736C1250.66 440.064 1255.91 442.656 1262.75 442.656C1270.46 442.656 1277.51 438.336 1282.34 429.408L1274.42 425.088C1271.68 430.2 1267.58 433.728 1262.97 433.728C1258 433.728 1255.34 431.856 1252.24 428.544C1247.34 423.216 1242.09 420.624 1235.25 420.624C1227.54 420.624 1220.49 424.944 1215.66 433.872L1223.58 438.192C1226.32 433.08 1230.42 429.552 1235.03 429.552C1240.07 429.552 1242.66 431.496 1245.76 434.736Z" fill="#2D3A4B"/>
<path d="M691.504 336.12H682.648V339.648H640.96V346.632H656.656L652.48 349.584C656.224 352.896 661.12 357.504 663.424 360.312L669.76 355.344C667.6 352.968 663.64 349.44 660.256 346.632H682.648V355.128C682.648 356.136 682.216 356.424 681.136 356.424C680.056 356.496 675.52 356.496 671.992 356.28C672.928 358.368 673.792 361.032 674.08 363.192C680.056 363.192 684.448 363.192 687.472 362.256C690.568 361.32 691.504 359.592 691.504 355.488V346.632H705.112V339.648H691.504V336.12ZM677.392 316.824V316.104C679.408 313.872 681.352 311.064 683.08 307.824H688.552L685.6 310.272C687.472 312.216 689.92 314.808 691.432 316.824H677.392ZM686.536 300.552C686.968 299.472 687.256 298.32 687.616 297.24L679.84 295.368C678.04 301.416 674.728 307.464 670.84 311.28C671.632 311.784 672.712 312.504 673.72 313.296H668.464V316.824H661.696L666.664 312.288C665.656 310.992 663.928 309.336 662.128 307.824H672.136V300.552H656.224C656.656 299.544 657.16 298.608 657.592 297.6L650.032 295.368C647.728 300.768 643.552 306.24 639.232 309.768C640.888 311.136 643.696 314.088 644.92 315.6C647.224 313.512 649.528 310.848 651.688 307.824H656.8L654.28 310.056C656.656 312.072 659.464 314.88 661.048 316.824H643.192V324.096H668.464V328.272H647.152V334.752H698.488V328.272H677.392V324.096H702.952V316.824H693.376L697.912 312.864C696.904 311.496 695.104 309.552 693.232 307.824H706.264V300.552H686.536ZM749.68 323.736V316.248C751.192 314.088 752.632 311.856 753.856 309.624H776.248V300.84H713.824V309.624H742.552C735.856 320.64 724.624 331.8 711.52 337.92C713.392 339.864 716.056 343.392 717.424 345.696C726.064 341.232 733.768 334.968 740.32 327.984V363.12H749.68V325.824C757.456 331.8 767.248 340.008 771.712 345.336L778.984 338.784C773.8 333.096 762.712 324.816 755.008 319.272L749.68 323.736ZM835.72 327.336C833.488 333.096 830.248 338.064 826.144 342.168C821.896 337.992 818.584 332.952 816.208 327.336H835.72ZM807.64 307.32H822.04C821.104 311.424 820.096 315.6 819.088 319.2H807.496C807.568 316.968 807.64 314.88 807.64 312.864V307.32ZM841.12 318.84L839.536 319.2H828.664C830.104 313.224 831.616 305.592 832.768 298.968H787.264V307.32H798.64V312.792C798.64 324.456 797.2 342.6 782.944 354.768C784.816 356.424 787.912 359.952 789.136 362.184C800.656 352.176 805.048 339.072 806.704 327.336H807.784C810.808 335.256 814.552 342.096 819.448 347.712C813.76 351.672 807.064 354.48 799.792 356.208C801.592 358.152 803.752 361.752 804.76 364.2C812.752 361.824 820.024 358.656 826.144 354.12C831.4 358.296 837.592 361.32 844.936 363.48C846.304 361.032 848.896 357.288 850.912 355.344C844.144 353.76 838.312 351.312 833.272 348C839.752 341.304 844.576 332.664 847.384 321.504L841.12 318.84ZM911.68 300.552L909.808 301.056H859.84V309.48H901.384C896.632 313.728 890.44 318.336 884.824 321.288V353.184C884.824 354.408 884.248 354.84 882.664 354.84C881.08 354.84 875.176 354.912 870.064 354.696C871.432 357 873.088 360.816 873.52 363.336C880.432 363.408 885.544 363.192 889.144 361.896C892.672 360.6 893.824 358.296 893.824 353.4V325.608C902.824 320.28 911.968 312.648 918.592 305.592L911.68 300.552ZM955.528 338.496H964.816C963.736 328.488 979.432 327.264 979.432 316.68C979.432 307.104 971.8 302.28 961.36 302.28C953.656 302.28 947.32 305.736 942.784 311.064L948.688 316.536C952.216 312.792 955.744 310.848 960.208 310.848C965.824 310.848 969.28 313.296 969.28 317.616C969.28 324.6 954.016 327.192 955.528 338.496ZM960.208 357.648C963.88 357.648 966.544 355.056 966.544 351.312C966.544 347.496 963.88 344.904 960.208 344.904C956.608 344.904 953.872 347.496 953.872 351.312C953.872 355.056 956.536 357.648 960.208 357.648Z" fill="#2D3A4B"/>
<path d="M1039 534.775C1039 527.357 1045.01 521.344 1052.43 521.344H1440V562.344H1066.57C1051.34 562.344 1039 550.001 1039 534.775Z" fill="#FFCC4D"/>
<path d="M243 13.431C243 6.01328 236.987 0 229.569 0H0V41H215.431C230.657 41 243 28.657 243 13.431Z" fill="#CECECE"/>
<path d="M46.6779 40.5L59.04 0.5H82.3328L70.6299 40.5H46.6779Z" fill="white" stroke="white"/>
<path d="M90.6779 40.5L103.04 0.5H126.333L114.63 40.5H90.6779Z" fill="white" stroke="white"/>
<path d="M1196.71 561.844L1210.89 521.844H1227.28L1212.65 561.844H1196.71Z" fill="white" stroke="white"/>
<path d="M1236.71 561.844L1250.89 521.844H1267.28L1252.65 561.844H1236.71Z" fill="white" stroke="white"/>
<path d="M1277.71 561.844L1291.89 521.844H1308.28L1293.65 561.844H1277.71Z" fill="white" stroke="white"/>
<g clip-path="url(#clip1)">
<path d="M538.999 76C502.886 76 481.116 98.2625 475.575 120.325C469.823 143.205 479.871 165.126 501.873 178.223C496.982 195.968 494.019 201.927 498.694 205.117C503.937 208.703 511.488 201.287 524.103 191.608L529.287 187.637C549.594 190.27 570.28 184.425 584.927 171.859C597.223 161.307 603.994 147.197 603.994 132.133C603.999 101.177 574.841 76 538.999 76ZM579.646 165.689C566.353 177.097 547.335 182.205 528.794 179.361C526.199 178.944 514.754 188.965 505.437 195.454C506.488 191.472 508.546 184.772 510.545 177.292C511.033 175.472 510.204 173.554 508.541 172.666C484.02 159.498 479.497 138.021 483.446 122.307C488.234 103.305 507.263 84.125 538.999 84.125C570.361 84.125 595.874 105.662 595.874 132.128C595.874 144.792 590.111 156.708 579.646 165.689Z" fill="#37760E"/>
<path d="M517.9 139.886L524.79 139.346L524.223 112.741L523.8 102.736L513.176 103.568L514.317 113.517L517.9 139.886ZM522.841 158.71C526.573 158.417 529.208 155.178 528.905 151.302C528.595 147.354 525.494 144.636 521.761 144.928C518.029 145.22 515.46 148.383 515.769 152.331C516.073 156.207 519.108 159.002 522.841 158.71ZM547.338 137.58L556.526 136.86C554.656 126.823 566.876 122.399 566.077 112.207C565.357 103.019 558.692 99.0633 550.078 99.7382C543.834 100.227 538.968 103.57 535.567 108.097L541.797 112.953C543.909 110.405 546.292 108.557 549.45 108.309C553.183 108.017 555.731 110.128 556.012 113.717C556.547 120.537 544.71 126.158 547.338 137.58ZM553.428 156.313C557.232 156.015 559.795 152.781 559.491 148.905C559.182 144.957 556.152 142.234 552.348 142.532C548.615 142.824 546.046 145.986 546.356 149.934C546.659 153.81 549.695 156.606 553.428 156.313Z" fill="#37760E"/>
</g>
<rect y="604" width="1439" height="106" fill="#84BC60"/>
<defs>
<filter id="filter0_d" x="106.785" y="403.802" width="475.11" height="286.88" filterUnits="userSpaceOnUse" color-interpolation-filters="sRGB">
<feFlood flood-opacity="0" result="BackgroundImageFix"/>
<feColorMatrix in="SourceAlpha" type="matrix" values="0 0 0 0 0 0 0 0 0 0 0 0 0 0 0 0 0 0 127 0"/>
<feOffset dx="4" dy="4"/>
<feGaussianBlur stdDeviation="5"/>
<feColorMatrix type="matrix" values="0 0 0 0 0 0 0 0 0 0 0 0 0 0 0 0 0 0 0.25 0"/>
<feBlend mode="normal" in2="BackgroundImageFix" result="effect1_dropShadow"/>
<feBlend mode="normal" in="SourceGraphic" in2="effect1_dropShadow" result="shape"/>
</filter>
<clipPath id="clip0">
<rect width="500.682" height="500.682" fill="white" transform="translate(90 176)"/>
</clipPath>
<clipPath id="clip1">
<rect width="130" height="130" fill="white" transform="translate(474 76)"/>
</clipPath>
</defs>
</svg>
